<svg viewBox="0 0 227 283" fill="none" xmlns="http://www.w3.org/2000/svg">
<path fill-rule="evenodd" clip-rule="evenodd" d="M138.914 2.99067C138.778 4.6046 138.402 8.74951 138.08 12.2018C137.521 18.1853 135.394 41.4988 135.081 45.0672C135 45.9978 134.489 51.6439 133.946 57.614C133.403 63.5842 132.771 70.6186 132.54 73.2461C132.31 75.8735 131.984 79.557 131.815 81.4317C131.646 83.3064 131.508 85.1603 131.508 85.5517C131.508 86.4109 131.423 86.4353 129.187 86.2189C128.261 86.1293 122.948 85.7052 117.381 85.2766C111.815 84.848 105.786 84.3817 103.985 84.2403C97.2042 83.7086 92.5705 84.3398 87.1714 86.5309C82.0454 88.6112 77.0638 92.381 73.7123 96.7165C71.9984 98.9332 70.967 100.728 69.6717 103.747C68.1188 107.366 67.7908 108.731 66.7058 116.096C66.2057 119.491 64.8603 126.123 63.5444 131.68C63.0609 133.722 62.6957 135.406 62.733 135.424C62.7702 135.441 64.0065 135.549 65.4804 135.665C70.8933 136.088 82.4321 137.016 88.7146 137.532C92.2655 137.824 98.521 138.327 102.616 138.651C106.71 138.974 110.822 139.308 111.752 139.392C113.333 139.536 118.773 139.976 136.975 141.435C141.07 141.763 150.767 142.547 158.523 143.178C166.279 143.809 173.518 144.393 174.609 144.475C175.7 144.558 179.142 144.84 182.257 145.102C185.372 145.364 190.645 145.79 193.974 146.048C197.304 146.306 201.415 146.642 203.111 146.794C204.807 146.945 208.426 147.238 211.155 147.444C213.883 147.651 217.34 147.935 218.838 148.075C220.336 148.216 221.682 148.308 221.83 148.281C222.609 148.135 219.679 132.928 216.314 119.65C214.577 112.795 213.71 110.535 211.354 106.718C208.804 102.588 205.724 99.3651 201.641 96.5564C198.384 94.3149 195.794 93.0835 192.088 92.0136C188.952 91.1079 186.686 90.7805 180.227 90.2987C168.565 89.4287 156.011 88.4053 155.877 88.3138C155.842 88.2892 155.953 86.7471 156.125 84.8871C156.471 81.1485 156.755 77.974 158.344 60.1015C158.593 57.3091 158.979 53.0078 159.203 50.5431C159.833 43.6153 161.174 28.6363 161.61 23.6619C161.825 21.1988 162.29 15.9139 162.641 11.9177C163.36 3.74213 163.457 2.19688 163.259 2.06104C163.042 1.91242 139.924 -0.0859229 139.449 0.00286185C139.241 0.0417604 139.095 0.859295 138.914 2.99067ZM55.2137 159.909C54.144 163.467 48.8195 176.49 45.8402 182.836C41.3835 192.328 36.3325 201.788 30.8544 210.902C23.6613 222.869 12.1074 239.28 4.66207 248.104C4.23118 248.615 2.99411 250.079 1.91328 251.358C0.832254 252.637 -0.0283801 253.767 0.00070885 253.869C0.16498 254.447 14.6116 261.003 22.8817 264.254C31.2079 267.527 46.9899 272.789 47.9441 272.611C48.3295 272.539 51.9138 270.018 54.0872 268.29C64.5611 259.964 72.2179 251.725 79.9092 240.504C84.6585 233.576 87.926 227.616 91.0824 220.125C91.8894 218.21 92.5654 216.726 92.5845 216.828C92.6037 216.931 92.4498 218.271 92.2426 219.807C90.526 232.527 86.3551 244.843 79.7557 256.679C76.4885 262.538 71.4224 269.673 66.6215 275.176C65.9128 275.989 65.3224 276.711 65.3098 276.78C65.234 277.193 82.6373 279.977 91.0451 280.896C122.044 284.288 153.953 281.837 183.431 273.802C194.3 270.839 203.811 267.493 216.058 262.323C217.163 261.857 216.969 262.326 218.69 255.963C223.662 237.576 226.123 217.908 226.11 196.653C226.106 190.116 225.368 173.208 225.072 172.882C225.01 172.813 224.852 172.777 224.722 172.801C224.592 172.825 220.514 172.525 215.66 172.133C210.806 171.741 202.866 171.108 198.015 170.725C193.164 170.343 187.891 169.919 186.298 169.784C184.705 169.649 180.41 169.304 176.752 169.019C173.095 168.733 166.884 168.232 162.95 167.904C159.016 167.577 152.447 167.043 148.352 166.719C144.257 166.394 138.771 165.954 136.161 165.741C133.552 165.527 127.967 165.084 123.752 164.755C119.537 164.426 113.094 163.912 109.434 163.613C105.774 163.313 95.0489 162.444 85.6008 161.682C76.1527 160.92 66.633 160.141 64.4459 159.951C62.2589 159.761 59.331 159.527 57.9397 159.431L55.4102 159.256L55.2137 159.909Z" fill="#82B440"/>
</svg>
